<?xml version="1.0" encoding="UTF-8" standalone="no"?>
<svg xmlns="http://www.w3.org/2000/svg" viewBox="0 0 100 100">
  <!-- Bell Silenced SVG -->
  <defs>
    <!-- Metal texture -->
    <linearGradient id="bellGradient" x1="0%" y1="0%" x2="100%" y2="100%">
      <stop offset="0%" stop-color="#a89653"/>
      <stop offset="50%" stop-color="#8e793e"/>
      <stop offset="100%" stop-color="#6b5b2e"/>
    </linearGradient>
    
    <!-- Cloth texture -->
    <linearGradient id="clothGradient" x1="0%" y1="0%" x2="100%" y2="0%">
      <stop offset="0%" stop-color="#333333"/>
      <stop offset="50%" stop-color="#2c2c2c"/>
      <stop offset="100%" stop-color="#333333"/>
    </linearGradient>
  </defs>
  
  <g id="bell-silenced">
    <!-- Bell body with Victorian ornate style -->
    <path d="M40 40 C25 70 75 70 60 40" 
          fill="url(#bellGradient)" stroke="#d3c7a6" stroke-width="2"/>
    
    <!-- Bell body details -->
    <path d="M43 45 C35 65 65 65 57 45" 
          fill="none" stroke="#6b5b2e" stroke-width="1" opacity="0.7"/>
    
    <!-- Bell decorative engravings -->
    <path d="M45 50 L55 50" stroke="#6b5b2e" stroke-width="0.5" opacity="0.8"/>
    <path d="M43 55 L57 55" stroke="#6b5b2e" stroke-width="0.5" opacity="0.8"/>
    <path d="M40 60 L60 60" stroke="#6b5b2e" stroke-width="0.5" opacity="0.8"/>
    
    <!-- Small decorative filigree -->
    <path d="M45 52 C47 54 53 54 55 52" 
          fill="none" stroke="#6b5b2e" stroke-width="0.5" opacity="0.6"/>
    <path d="M43 57 C45 59 55 59 57 57" 
          fill="none" stroke="#6b5b2e" stroke-width="0.5" opacity="0.6"/>
    
    <!-- Bell top -->
    <path d="M45 30 A5 5 0 0 1 55 30 L55 40 L45 40 Z" 
          fill="url(#bellGradient)" stroke="#d3c7a6" stroke-width="1"/>
    
    <!-- Bell top design -->
    <path d="M47 35 L53 35" stroke="#6b5b2e" stroke-width="0.5" opacity="0.8"/>
    
    <!-- Bell handle with ornate design -->
    <path d="M45 30 A5 10 0 0 1 55 30" 
          fill="none" stroke="#d3c7a6" stroke-width="2"/>
    
    <!-- Handle details -->
    <path d="M48 25 A2 2 0 0 1 52 25" 
          fill="none" stroke="#d3c7a6" stroke-width="1" opacity="0.8"/>
    
    <!-- Bell clapper - immobilized by cloth -->
    <path d="M50 40 L50 50" 
          fill="none" stroke="#d3c7a6" stroke-width="1"/>
    
    <!-- Cloth wrapping silencing the bell -->
    <path d="M30 55 C30 55 40 65 50 65 C60 65 70 55 70 55" 
          fill="url(#clothGradient)" stroke="#d3c7a6" stroke-width="1" opacity="0.7"/>
    
    <!-- Cloth texture details -->
    <path d="M35 55 L35 65" stroke="#1a1a1a" stroke-width="0.5" opacity="0.7"/>
    <path d="M45 58 L45 68" stroke="#1a1a1a" stroke-width="0.5" opacity="0.7"/>
    <path d="M55 58 L55 68" stroke="#1a1a1a" stroke-width="0.5" opacity="0.7"/>
    <path d="M65 55 L65 65" stroke="#1a1a1a" stroke-width="0.5" opacity="0.7"/>
    
    <!-- Cloth folds -->
    <path d="M30 55 C35 58 45 60 50 58 C55 56 65 58 70 55" 
          fill="none" stroke="#444444" stroke-width="0.5" opacity="0.6"/>
    <path d="M35 59 C40 62 45 63 50 61 C55 59 60 61 65 59" 
          fill="none" stroke="#444444" stroke-width="0.5" opacity="0.6"/>
    
    <!-- Cloth wrapping knot -->
    <ellipse cx="50" cy="60" rx="5" ry="3" 
             transform="rotate(45, 50, 60)" 
             fill="#2c2c2c" stroke="#d3c7a6" stroke-width="0.5" opacity="0.8"/>
    <path d="M48 58 L52 62" stroke="#d3c7a6" stroke-width="0.5" opacity="0.8"/>
    <path d="M48 62 L52 58" stroke="#d3c7a6" stroke-width="0.5" opacity="0.8"/>
  </g>
</svg>
