<?xml version="1.0" encoding="UTF-8" standalone="no"?>
<svg xmlns="http://www.w3.org/2000/svg" viewBox="0 0 100 100">
  <!-- Blood Vial SVG -->
  <defs>
    <!-- Glass texture -->
    <linearGradient id="glassGradient" x1="0%" y1="0%" x2="100%" y2="0%">
      <stop offset="0%" stop-color="#e8ddcb" stop-opacity="0.1"/>
      <stop offset="45%" stop-color="#e8ddcb" stop-opacity="0.3"/>
      <stop offset="55%" stop-color="#e8ddcb" stop-opacity="0.3"/>
      <stop offset="100%" stop-color="#e8ddcb" stop-opacity="0.1"/>
    </linearGradient>
  </defs>
  
  <g id="blood-vial">
    <!-- Glass container with aged appearance -->
    <path d="M40 10 L60 10 L60 30 C60 30 70 40 70 60 C70 80 50 90 50 90 C50 90 30 80 30 60 C30 40 40 30 40 30 Z" 
          fill="none" stroke="#d3c7a6" stroke-width="3"/>
    
    <!-- Glass shine effect -->
    <path d="M40 30 L60 30 L60 50 L40 50 Z" 
          fill="url(#glassGradient)" opacity="0.2"/>
    
    <!-- Cork with weathered texture -->
    <rect x="40" y="5" width="20" height="10" fill="#8e793e" stroke="#d3c7a6" stroke-width="1"/>
    
    <!-- Cork texture lines -->
    <line x1="43" y1="5" x2="43" y2="15" stroke="#6b5b2e" stroke-width="0.5" opacity="0.7"/>
    <line x1="47" y1="5" x2="47" y2="15" stroke="#6b5b2e" stroke-width="0.5" opacity="0.7"/>
    <line x1="53" y1="5" x2="53" y2="15" stroke="#6b5b2e" stroke-width="0.5" opacity="0.7"/>
    <line x1="57" y1="5" x2="57" y2="15" stroke="#6b5b2e" stroke-width="0.5" opacity="0.7"/>
    
    <!-- Subtle container details -->
    <path d="M37 60 L39 60" stroke="#d3c7a6" stroke-width="1" opacity="0.5"/>
    <path d="M37 70 L39 70" stroke="#d3c7a6" stroke-width="1" opacity="0.5"/>
    <path d="M61 60 L63 60" stroke="#d3c7a6" stroke-width="1" opacity="0.5"/>
    <path d="M61 70 L63 70" stroke="#d3c7a6" stroke-width="1" opacity="0.5"/>
  </g>
</svg>
