<?xml version="1.0" encoding="UTF-8" standalone="no"?>
<svg xmlns="http://www.w3.org/2000/svg" viewBox="0 0 100 100">
  <!-- Blood Vial Filled SVG -->
  <defs>
    <!-- Glass texture -->
    <linearGradient id="glassGradient" x1="0%" y1="0%" x2="100%" y2="0%">
      <stop offset="0%" stop-color="#e8ddcb" stop-opacity="0.1"/>
      <stop offset="45%" stop-color="#e8ddcb" stop-opacity="0.3"/>
      <stop offset="55%" stop-color="#e8ddcb" stop-opacity="0.3"/>
      <stop offset="100%" stop-color="#e8ddcb" stop-opacity="0.1"/>
    </linearGradient>
    
    <!-- Blood texture -->
    <linearGradient id="bloodGradient" x1="0%" y1="0%" x2="100%" y2="100%">
      <stop offset="0%" stop-color="#a30000"/>
      <stop offset="50%" stop-color="#8b0000"/>
      <stop offset="100%" stop-color="#580000"/>
    </linearGradient>
    
    <!-- Blood glow -->
    <filter id="bloodGlow" x="-20%" y="-20%" width="140%" height="140%">
      <feGaussianBlur stdDeviation="2" result="blur"/>
      <feComposite in="SourceGraphic" in2="blur" operator="over"/>
    </filter>
  </defs>
  
  <g id="blood-vial-fill">
    <!-- Glass container with aged appearance -->
    <path d="M40 10 L60 10 L60 30 C60 30 70 40 70 60 C70 80 50 90 50 90 C50 90 30 80 30 60 C30 40 40 30 40 30 Z" 
          fill="none" stroke="#d3c7a6" stroke-width="3"/>
    
    <!-- Blood filling the vial with pulsing effect -->
    <path d="M40 50 C40 50 40 40 50 40 C60 40 60 50 60 50 L60 55 C60 75 50 85 50 85 C50 85 40 75 40 55 Z" 
          fill="url(#bloodGradient)" opacity="0.8" filter="url(#bloodGlow)">
      <animate attributeName="opacity" values="0.7;0.9;0.7" dur="3s" repeatCount="indefinite"/>
    </path>
    
    <!-- Blood swirl detail -->
    <path d="M45 60 C45 65 55 65 55 60" 
          fill="none" stroke="#580000" stroke-width="1" opacity="0.6">
      <animate attributeName="d" 
              values="M45 60 C45 65 55 65 55 60;
                     M45 60 C45 55 55 55 55 60;
                     M45 60 C45 65 55 65 55 60" 
              dur="5s" repeatCount="indefinite"/>
    </path>
    
    <!-- Glass shine effect -->
    <path d="M40 30 L60 30 L60 50 L40 50 Z" 
          fill="url(#glassGradient)" opacity="0.2"/>
    
    <!-- Cork with weathered texture -->
    <rect x="40" y="5" width="20" height="10" fill="#8e793e" stroke="#d3c7a6" stroke-width="1"/>
    
    <!-- Cork texture lines -->
    <line x1="43" y1="5" x2="43" y2="15" stroke="#6b5b2e" stroke-width="0.5" opacity="0.7"/>
    <line x1="47" y1="5" x2="47" y2="15" stroke="#6b5b2e" stroke-width="0.5" opacity="0.7"/>
    <line x1="53" y1="5" x2="53" y2="15" stroke="#6b5b2e" stroke-width="0.5" opacity="0.7"/>
    <line x1="57" y1="5" x2="57" y2="15" stroke="#6b5b2e" stroke-width="0.5" opacity="0.7"/>
    
    <!-- Subtle container details -->
    <path d="M37 60 L39 60" stroke="#d3c7a6" stroke-width="1" opacity="0.5"/>
    <path d="M37 70 L39 70" stroke="#d3c7a6" stroke-width="1" opacity="0.5"/>
    <path d="M61 60 L63 60" stroke="#d3c7a6" stroke-width="1" opacity="0.5"/>
    <path d="M61 70 L63 70" stroke="#d3c7a6" stroke-width="1" opacity="0.5"/>
  </g>
</svg>
