<?xml version="1.0" encoding="UTF-8" standalone="no"?>
<svg xmlns="http://www.w3.org/2000/svg" xmlns:xlink="http://www.w3.org/1999/xlink" viewBox="0 0 100 100">
  <!-- Bloodborne-themed Arch Linux Logo -->
  <defs>
    <!-- Blood drip filter -->
    <filter id="drip" x="0" y="0" width="100%" height="200%">
      <feGaussianBlur in="SourceAlpha" stdDeviation="2" result="blur"/>
      <feOffset in="blur" dx="0" dy="2" result="offsetBlur"/>
      <feComponentTransfer in="offsetBlur" result="dropShadow">
        <feFuncA type="linear" slope="1.5"/>
      </feComponentTransfer>
      <feMerge> 
        <feMergeNode in="dropShadow"/> 
        <feMergeNode in="SourceGraphic"/> 
      </feMerge>
    </filter>
    
    <!-- Blood texture gradient -->
    <linearGradient id="bloodGradient" x1="0%" y1="0%" x2="100%" y2="100%">
      <stop offset="0%" stop-color="#a30000" />
      <stop offset="50%" stop-color="#8b0000" />
      <stop offset="100%" stop-color="#580000" />
    </linearGradient>
    
    <!-- Veins pattern -->
    <pattern id="veinsPattern" patternUnits="userSpaceOnUse" width="100" height="100">
      <path d="M20,20 Q30,40 20,60 Q10,75 20,90" stroke="#580000" stroke-width="0.5" fill="none" opacity="0.6"/>
      <path d="M40,10 Q50,30 40,50 Q30,70 40,90" stroke="#580000" stroke-width="0.5" fill="none" opacity="0.6"/>
      <path d="M60,10 Q70,30 60,50 Q50,70 60,90" stroke="#580000" stroke-width="0.5" fill="none" opacity="0.5"/>
      <path d="M80,20 Q90,40 80,60 Q70,75 80,90" stroke="#580000" stroke-width="0.6" fill="none" opacity="0.5"/>
    </pattern>
  </defs>

  <!-- Base Arch Logo -->
  <path d="M50,10 C30,80 35,80 20,95 C35,90 65,90 80,95 C65,80 70,80 50,10 Z" 
        fill="url(#bloodGradient)" 
        stroke="#d3c7a6" 
        stroke-width="0.5"
        filter="url(#drip)" />
  
  <!-- Blood veining overlay -->
  <path d="M50,10 C30,80 35,80 20,95 C35,90 65,90 80,95 C65,80 70,80 50,10 Z" 
        fill="url(#veinsPattern)" 
        opacity="0.8" />
  
  <!-- Blood drips -->
  <path d="M45,12 Q45,20 43,25 T45,35" fill="#8b0000" stroke="#580000" stroke-width="0.3" opacity="0.9"/>
  <path d="M55,15 Q55,25 57,30 T54,40" fill="#8b0000" stroke="#580000" stroke-width="0.3" opacity="0.9"/>
  <path d="M30,85 Q30,90 28,95 T32,100" fill="#8b0000" stroke="#580000" stroke-width="0.3" opacity="0.9"/>
  <path d="M70,85 Q70,90 72,95 T68,100" fill="#8b0000" stroke="#580000" stroke-width="0.3" opacity="0.9"/>
  
  <!-- Subtle glow effect -->
  <path d="M50,10 C30,80 35,80 20,95 C35,90 65,90 80,95 C65,80 70,80 50,10 Z" 
        fill="none" 
        stroke="#d3c7a6" 
        stroke-width="0.8"
        opacity="0.3" />
        
  <!-- Specular highlight -->
  <path d="M46,20 C48,30 52,30 54,20" 
        fill="#e8ddcb" 
        opacity="0.2" />
</svg>
