<?xml version="1.0" encoding="UTF-8" standalone="no"?>
<svg xmlns="http://www.w3.org/2000/svg" viewBox="0 0 100 100">
  <!-- Saw Cleaver SVG -->
  <defs>
    <!-- Metal texture -->
    <linearGradient id="bladeGradient" x1="0%" y1="0%" x2="100%" y2="100%">
      <stop offset="0%" stop-color="#444444"/>
      <stop offset="50%" stop-color="#2c2c2c"/>
      <stop offset="100%" stop-color="#1a1a1a"/>
    </linearGradient>
    
    <!-- Blood stain -->
    <radialGradient id="bloodStain" cx="70%" cy="40%" r="60%" fx="70%" fy="40%">
      <stop offset="0%" stop-color="#8b0000" stop-opacity="0.9"/>
      <stop offset="70%" stop-color="#8b0000" stop-opacity="0.3"/>
      <stop offset="100%" stop-color="#8b0000" stop-opacity="0"/>
    </radialGradient>
    
    <!-- Wood texture -->
    <linearGradient id="woodGradient" x1="0%" y1="0%" x2="100%" y2="0%">
      <stop offset="0%" stop-color="#8e793e"/>
      <stop offset="25%" stop-color="#6b5b2e"/>
      <stop offset="50%" stop-color="#8e793e"/>
      <stop offset="75%" stop-color="#6b5b2e"/>
      <stop offset="100%" stop-color="#8e793e"/>
    </linearGradient>
  </defs>
  
  <g id="saw-cleaver">
    <!-- Handle with wooden texture -->
    <rect x="20" y="65" width="40" height="10" rx="2" 
          fill="url(#woodGradient)" stroke="#d3c7a6" stroke-width="1"/>
    
    <!-- Handle grain details -->
    <line x1="25" y1="65" x2="25" y2="75" stroke="#6b5b2e" stroke-width="0.5" opacity="0.7"/>
    <line x1="35" y1="65" x2="35" y2="75" stroke="#6b5b2e" stroke-width="0.5" opacity="0.7"/>
    <line x1="45" y1="65" x2="45" y2="75" stroke="#6b5b2e" stroke-width="0.5" opacity="0.7"/>
    <line x1="55" y1="65" x2="55" y2="75" stroke="#6b5b2e" stroke-width="0.5" opacity="0.7"/>
    
    <!-- Handle wrappings -->
    <rect x="30" y="63" width="5" height="14" fill="#d3c7a6" opacity="0.7"/>
    <rect x="45" y="63" width="5" height="14" fill="#d3c7a6" opacity="0.7"/>
    
    <!-- Wrapping texture -->
    <line x1="30" y1="65" x2="35" y2="65" stroke="#a89653" stroke-width="0.5" opacity="0.8"/>
    <line x1="30" y1="67" x2="35" y2="67" stroke="#a89653" stroke-width="0.5" opacity="0.8"/>
    <line x1="30" y1="69" x2="35" y2="69" stroke="#a89653" stroke-width="0.5" opacity="0.8"/>
    <line x1="30" y1="71" x2="35" y2="71" stroke="#a89653" stroke-width="0.5" opacity="0.8"/>
    <line x1="30" y1="73" x2="35" y2="73" stroke="#a89653" stroke-width="0.5" opacity="0.8"/>
    <line x1="30" y1="75" x2="35" y2="75" stroke="#a89653" stroke-width="0.5" opacity="0.8"/>
    
    <line x1="45" y1="65" x2="50" y2="65" stroke="#a89653" stroke-width="0.5" opacity="0.8"/>
    <line x1="45" y1="67" x2="50" y2="67" stroke="#a89653" stroke-width="0.5" opacity="0.8"/>
    <line x1="45" y1="69" x2="50" y2="69" stroke="#a89653" stroke-width="0.5" opacity="0.8"/>
    <line x1="45" y1="71" x2="50" y2="71" stroke="#a89653" stroke-width="0.5" opacity="0.8"/>
    <line x1="45" y1="73" x2="50" y2="73" stroke="#a89653" stroke-width="0.5" opacity="0.8"/>
    <line x1="45" y1="75" x2="50" y2="75" stroke="#a89653" stroke-width="0.5" opacity="0.8"/>
    
    <!-- Metal connector -->
    <rect x="57" y="66" width="6" height="8" rx="1" 
          fill="#444444" stroke="#222222" stroke-width="1"/>
    
    <!-- Main blade with weathered look -->
    <path d="M60 70 L85 45 L75 35 L60 50 L50 40 L40 50 L60 70" 
          fill="url(#bladeGradient)" stroke="#d3c7a6" stroke-width="2"/>
    
    <!-- Blood stain on blade -->
    <path d="M75 35 L85 45 L70 60" 
          fill="url(#bloodStain)" opacity="0.8"/>
    
    <!-- Blade details -->
    <path d="M60 50 L75 35" stroke="#444444" stroke-width="1" opacity="0.7"/>
    <path d="M50 40 L40 50" stroke="#444444" stroke-width="1" opacity="0.7"/>
    
    <!-- Serrated edge -->
    <path d="M75 35 L80 30" fill="none" stroke="#d3c7a6" stroke-width="1"/>
    <path d="M70 40 L75 35" fill="none" stroke="#d3c7a6" stroke-width="1"/>
    <path d="M65 45 L70 40" fill="none" stroke="#d3c7a6" stroke-width="1"/>
    
    <!-- Weathered details and nicks -->
    <line x1="67" y1="48" x2="68" y2="47" stroke="#666666" stroke-width="0.5" opacity="0.8"/>
    <line x1="77" y1="38" x2="78" y2="37" stroke="#666666" stroke-width="0.5" opacity="0.8"/>
    <line x1="45" y1="47" x2="46" y2="46" stroke="#666666" stroke-width="0.5" opacity="0.8"/>
  </g>
</svg>
